<svg xmlns="http://www.w3.org/2000/svg" xmlns:xlink="http://www.w3.org/1999/xlink" version="1.1" x="0px" y="0px" viewBox="0 0 100 125"  style="enable-background:new 0 0 100 100;" xml:space="preserve"><path fill="#F7CA18" stroke="#F7CA18" d="M80.5,19.4H69.3v-8.3c0-1.6-1.3-2.9-2.9-2.9s-2.9,1.3-2.9,2.9v8.3H36.5v-8.3c0-1.6-1.3-2.9-2.9-2.9s-2.9,1.3-2.9,2.9v8.3  H19.5c-6,0-10.9,4.9-10.9,10.9v51.4c0,6,4.9,10.9,10.9,10.9h61c6,0,10.9-4.9,10.9-10.9V30.3C91.4,24.3,86.5,19.4,80.5,19.4z   M85.6,81.7c0,2.8-2.3,5.1-5.1,5.1h-61c-2.8,0-5.1-2.3-5.1-5.1V30.3c0-2.8,2.3-5.1,5.1-5.1h11.2v4c0,1.6,1.3,2.9,2.9,2.9  s2.9-1.3,2.9-2.9v-4h26.9v4c0,1.6,1.3,2.9,2.9,2.9s2.9-1.3,2.9-2.9v-4h11.2c2.8,0,5.1,2.3,5.1,5.1V81.7z"/><path fill="#F7CA18" d="M34.8,45.4H24.1c-1.6,0-2.9,1.3-2.9,2.9s1.3,2.9,2.9,2.9h10.7c1.6,0,2.9-1.3,2.9-2.9S36.4,45.4,34.8,45.4z"/><path fill="#F7CA18" d="M34.8,72.4H24.1c-1.6,0-2.9,1.3-2.9,2.9s1.3,2.9,2.9,2.9h10.7c1.6,0,2.9-1.3,2.9-2.9S36.4,72.4,34.8,72.4z"/><path fill="#F7CA18" d="M34.8,58.9H24.1c-1.6,0-2.9,1.3-2.9,2.9s1.3,2.9,2.9,2.9h10.7c1.6,0,2.9-1.3,2.9-2.9S36.4,58.9,34.8,58.9z"/><path fill="#F7CA18" d="M55.4,45.4H44.6c-1.6,0-2.9,1.3-2.9,2.9s1.3,2.9,2.9,2.9h10.7c1.6,0,2.9-1.3,2.9-2.9S57,45.4,55.4,45.4z"/><path fill="#F7CA18" d="M55.4,72.4H44.6c-1.6,0-2.9,1.3-2.9,2.9s1.3,2.9,2.9,2.9h10.7c1.6,0,2.9-1.3,2.9-2.9S57,72.4,55.4,72.4z"/><path fill="#F7CA18" d="M55.4,58.9H44.6c-1.6,0-2.9,1.3-2.9,2.9s1.3,2.9,2.9,2.9h10.7c1.6,0,2.9-1.3,2.9-2.9S57,58.9,55.4,58.9z"/><path fill="#F7CA18" d="M75.9,45.4H65.2c-1.6,0-2.9,1.3-2.9,2.9s1.3,2.9,2.9,2.9h10.7c1.6,0,2.9-1.3,2.9-2.9S77.5,45.4,75.9,45.4z"/><path fill="#F7CA18" d="M75.9,72.4H65.2c-1.6,0-2.9,1.3-2.9,2.9s1.3,2.9,2.9,2.9h10.7c1.6,0,2.9-1.3,2.9-2.9S77.5,72.4,75.9,72.4z"/><path fill="#F7CA18" d="M75.9,58.9H65.2c-1.6,0-2.9,1.3-2.9,2.9s1.3,2.9,2.9,2.9h10.7c1.6,0,2.9-1.3,2.9-2.9S77.5,58.9,75.9,58.9z"/><text x="0" y="115" fill="#F7CA18" font-size="5px" font-weight="bold" font-family="'Helvetica Neue', Helvetica, Arial-Unicode, Arial, Sans-serif"></text><text x="0" y="120" fill="#F7CA18" font-size="5px" font-weight="bold" font-family="'Helvetica Neue', Helvetica, Arial-Unicode, Arial, Sans-serif"></text></svg>
