<svg xmlns="http://www.w3.org/2000/svg" xmlns:xlink="http://www.w3.org/1999/xlink" version="1.1" x="0px" y="0px" viewBox="0 0 100 125" enable-background="new 0 0 100 100" xml:space="preserve"><g><path fill="#F7CA18" d="M83.2,20.9H56.5L53.2,7.5c0-0.1,0-0.1,0-0.1c0-0.1-0.1-0.2-0.1-0.3C53,7,53,6.9,52.9,6.8   c0-0.1-0.1-0.1-0.1-0.2c-0.1-0.1-0.1-0.2-0.2-0.2c-0.1-0.1-0.1-0.1-0.2-0.2c-0.1-0.1-0.1-0.1-0.2-0.2C52.2,6,52.1,5.9,52,5.9   c-0.1-0.1-0.2-0.1-0.2-0.1c-0.1,0-0.1-0.1-0.2-0.1c-0.1,0-0.2-0.1-0.3-0.1c0,0-0.1,0-0.2,0c0,0-0.1,0-0.1,0c-0.1,0-0.2,0-0.3,0   c-0.2,0-0.3,0-0.5,0c-0.1,0-0.2,0-0.2,0c-0.1,0-0.1,0-0.2,0c-0.1,0-0.1,0-0.1,0c-0.1,0-0.2,0.1-0.3,0.1c-0.1,0-0.2,0.1-0.2,0.1   c-0.1,0-0.1,0.1-0.2,0.1C48.9,5.9,48.8,6,48.8,6c-0.1,0.1-0.1,0.1-0.2,0.2c-0.1,0.1-0.1,0.1-0.2,0.2c-0.1,0.1-0.1,0.1-0.2,0.2   c0,0.1-0.1,0.1-0.1,0.2C48.1,6.9,48,7,48,7.1c0,0.1-0.1,0.2-0.1,0.2c0,0,0,0.1-0.1,0.2l-3.4,13.4H17.8c-1.9,0-3.5,1.5-3.5,3.3v38.7   c0,1.8,1.6,3.3,3.5,3.3h15.3l-6.7,26.6c-0.4,1.5,0.5,3,2,3.3c0.2,0.1,0.4,0.1,0.7,0.1c1.3,0,2.3-0.9,2.7-2.1l3.4-13.5h30.8   l3.4,13.5c0.3,1.2,1.4,2.1,2.7,2.1c0.2,0,0.5,0,0.7-0.1c1.5-0.4,2.4-1.9,2-3.3l-6.7-26.6h15.3c1.9,0,3.5-1.5,3.5-3.3V24.2   C86.7,22.4,85.1,20.9,83.2,20.9z M49.8,8C49.8,8,49.9,7.9,49.8,8c0-0.1,0-0.1,0.1-0.1c0,0,0.1-0.1,0.1-0.1l0.2-0.2   c0,0,0.1-0.1,0.1-0.1c0,0,0,0,0.1,0c0,0,0,0,0,0c0,0,0,0,0,0c0,0,0,0,0.1,0l0.1,0c0,0,0.1,0,0.1,0c0,0,0,0,0,0c0,0,0,0,0,0   c0,0,0,0,0.1,0c0,0,0.1,0.1,0.1,0.1c0,0,0,0,0.1,0.1c0,0,0,0,0.1,0.1l0.1,0.1c0,0,0,0.1,0,0.1l3.2,12.9H53l-1.5-6   c-0.1-0.5-0.5-0.8-1-0.8s-0.9,0.3-1,0.8l-1.5,6h-1.4L49.8,8z M50.9,20.9h-0.8l0.4-1.5L50.9,20.9z M72.6,93.4   c0.1,0.4-0.1,0.7-0.5,0.8c-0.4,0.1-0.7-0.1-0.8-0.5l-3.6-14.3c-0.1-0.5-0.5-0.8-1-0.8H34.3c-0.5,0-0.9,0.3-1,0.8l-3.6,14.3   c-0.1,0.4-0.5,0.6-0.8,0.5c-0.4-0.1-0.6-0.5-0.5-0.8l6.8-27.1h1.4l-0.7,3c-0.1,0.3,0,0.6,0.2,0.9c0.2,0.2,0.5,0.4,0.8,0.4h27.3   c0.3,0,0.6-0.1,0.8-0.4c0.2-0.3,0.3-0.6,0.2-0.9l-0.7-3h1.4L72.6,93.4z M62.3,66.2l0.6,2.2H38.2l0.6-2.2H62.3z M84.6,62.9   c0,0.7-0.6,1.3-1.4,1.3H63c0,0,0,0,0,0H17.8c-0.8,0-1.4-0.6-1.4-1.3V24.2c0-0.7,0.6-1.3,1.4-1.3h27.4c0,0,0,0,0,0h3.6c0,0,0,0,0,0   c0,0,0,0,0,0h6.9c0,0,0,0,0,0c0,0,0,0,0,0h27.4c0.8,0,1.4,0.6,1.4,1.3V62.9z"/><path fill="#F7CA18" d="M36,71.8c-0.5,0-0.9,0.3-1,0.8L34.2,76c-0.1,0.3,0,0.6,0.2,0.9c0.2,0.2,0.5,0.4,0.8,0.4h30.7   c0.3,0,0.6-0.1,0.8-0.4c0.2-0.3,0.3-0.6,0.2-0.9L66,72.6c-0.1-0.5-0.5-0.8-1-0.8H36z M36.5,75.2l0.3-1.3h27.4l0.3,1.3H36.5z"/></g><text x="0" y="115" fill="#000000" font-size="5px" font-weight="bold" font-family="'Helvetica Neue', Helvetica, Arial-Unicode, Arial, Sans-serif"></text><text x="0" y="120" fill="#000000" font-size="5px" font-weight="bold" font-family="'Helvetica Neue', Helvetica, Arial-Unicode, Arial, Sans-serif"></text></svg>
