<svg xmlns="http://www.w3.org/2000/svg" xmlns:xlink="http://www.w3.org/1999/xlink" version="1.1" x="0px" y="0px" viewBox="0 0 48 60" enable-background="new 0 0 48 48" xml:space="preserve"><g><path fill="none" stroke="#F7CA18" stroke-width="2" stroke-linecap="round" stroke-linejoin="round" stroke-miterlimit="10" d="   M41.939,12.533C41.659,7.161,35.185,1,35.185,1c0.601,2.476-0.703,3.619-3.252,6.942c-2.547,3.325-1.234,7.022-1.234,7.022   C33.139,20.775,42.22,17.905,41.939,12.533z"/><path fill="none" stroke="#F7CA18" stroke-width="2" stroke-linecap="round" stroke-linejoin="round" stroke-miterlimit="10" d="   M34.006,18.134c0.002,0.216,0.002,0.425,0.006,0.651c0.021,1.521,0.077,3.291,0.193,5.181c0.071,1.895,0.289,3.894,0.44,5.905   c0.357,4.011,0.9,7.995,1.349,10.977c0.117,0.746,0.222,1.43,0.316,2.034c0.043,0.612,0.25,1.123,0.692,1.502   c0.413,0.384,0.998,0.643,1.436,0.817c0.471,0.169,0.83,0.241,0.83,0.241c1.08,0.222,2.215,0.083,3.246-0.482   c0,0,0.321-0.175,0.719-0.472c0.359-0.291,0.831-0.712,1.105-1.196c0.302-0.489,0.33-1.034,0.18-1.631   c-0.101-0.603-0.22-1.287-0.346-2.029c-0.523-2.971-1.275-6.923-2.21-10.849c-0.495-1.959-0.926-3.929-1.463-5.754   c-0.489-1.835-1.001-3.536-1.467-4.991c-0.067-0.216-0.133-0.415-0.199-0.621"/><path fill="none" stroke="#F7CA18" stroke-width="2" stroke-linecap="round" stroke-linejoin="round" stroke-miterlimit="10" d="   M30.727,14.873c-1.351-0.407-2.745-0.724-4.171-0.936C13.998,12.065,2.626,17.842,1.157,26.838   c-1.469,8.997,7.52,17.807,20.079,19.679c4.872,0.725,10.308,1.057,12.905-2.141c1.003-1.234-0.054-2.145-1.076-3.389   c-1.746-2.121-3.932-4.794-1.92-7.528c1.003-1.362,2.336-1.776,3.698-1.601"/><path fill="none" stroke="#F7CA18" stroke-width="2" stroke-linecap="round" stroke-linejoin="round" stroke-miterlimit="10" d="   M43.313,35.021c0.537-0.044,1.081-0.179,1.624-0.435c0.762-0.357,1.569-0.927,1.801-1.803c1.226-4.593-1.971-9.868-7.385-13.719"/><ellipse fill="none" stroke="#F7CA18" stroke-width="2" stroke-linecap="round" stroke-linejoin="round" stroke-miterlimit="10" cx="10.802" cy="25.845" rx="4.355" ry="3.169"/><ellipse fill="none" stroke="#F7CA18" stroke-width="2" stroke-linecap="round" stroke-linejoin="round" stroke-miterlimit="10" cx="16.821" cy="36.097" rx="4.356" ry="3.17"/><ellipse fill="none" stroke="#F7CA18" stroke-width="2" stroke-linecap="round" stroke-linejoin="round" stroke-miterlimit="10" cx="22.019" cy="20.102" rx="4.355" ry="3.17"/></g><text x="0" y="63" fill="#000000" font-size="5px" font-weight="bold" font-family="'Helvetica Neue', Helvetica, Arial-Unicode, Arial, Sans-serif"></text><text x="0" y="68" fill="#000000" font-size="5px" font-weight="bold" font-family="'Helvetica Neue', Helvetica, Arial-Unicode, Arial, Sans-serif"></text></svg>
